<svg width="39" height="39" viewBox="0 0 39 39" fill="none" xmlns="http://www.w3.org/2000/svg">
<g filter="url(#filter0_d_339_290)">
<circle cx="19.7596" cy="15.2943" r="15.0162" fill="white"/>
</g>
<path d="M17.1441 11.5178L17.1442 11.5177L17.9672 10.6967L17.9673 10.6966L18.0379 10.7674L17.1441 11.5178ZM17.1441 11.5178C16.6053 12.0568 15.8745 12.3598 15.1124 12.3602H13.9502C13.6606 12.3602 13.383 12.4752 13.1782 12.6799C12.9735 12.8847 12.8585 13.1623 12.8585 13.4519V19.402C12.8585 19.6915 12.9735 19.9692 13.1782 20.174C13.383 20.3787 13.6606 20.4937 13.9502 20.4937H25.8505C26.14 20.4937 26.4177 20.3787 26.6224 20.174C26.8271 19.9692 26.9422 19.6915 26.9422 19.402V13.4519C26.9422 13.1623 26.8271 12.8847 26.6224 12.6799C26.4177 12.4752 26.14 12.3602 25.8505 12.3602H24.6882C24.3105 12.3602 23.9365 12.2859 23.5876 12.1413C23.2386 11.9968 22.9216 11.7849 22.6546 11.5178L22.6545 11.5178M17.1441 11.5178L22.6545 11.5178M22.6545 11.5178L21.8334 10.6967L22.6545 11.5178ZM24.6882 11.5685H24.6882C24.1357 11.5684 23.6059 11.3488 23.2152 10.9581C23.2152 10.9581 23.2152 10.9581 23.2152 10.9581L22.3941 10.1369L22.3941 10.1369C22.041 9.78372 21.562 9.58522 21.0626 9.58511L24.6882 11.5685ZM24.6882 11.5685H25.8505C26.35 11.5685 26.829 11.7669 27.1822 12.1201C27.5354 12.4733 27.7338 12.9524 27.7338 13.4519V19.402C27.7338 19.9015 27.5354 20.3806 27.1822 20.7338C26.829 21.087 26.35 21.2854 25.8505 21.2854H13.9502C13.4507 21.2854 12.9716 21.087 12.6184 20.7338C12.2652 20.3806 12.0668 19.9015 12.0668 19.402V13.4519C12.0668 12.9524 12.2652 12.4733 12.6184 12.1201C12.9716 11.7669 13.4507 11.5685 13.9502 11.5685H15.1124H15.1125C15.665 11.5684 16.1948 11.3488 16.5854 10.9581C16.5854 10.9581 16.5854 10.9581 16.5854 10.9581L17.4065 10.1369L17.4065 10.1369M24.6882 11.5685L17.4065 10.1369M17.4065 10.1369C17.7596 9.78372 18.2386 9.58522 18.7381 9.58511C18.7381 9.58511 18.7381 9.58511 18.7381 9.58511M17.4065 10.1369L18.7381 9.58511M18.7381 9.58511H21.0626H18.7381Z" fill="#232323" stroke="white" stroke-width="0.2"/>
<path d="M18.0766 17.7547C18.5602 18.2384 19.2163 18.5101 19.9003 18.5101C20.5844 18.5101 21.2404 18.2384 21.7241 17.7547C22.2078 17.271 22.4796 16.6149 22.4796 15.9309C22.4796 15.2468 22.2078 14.5908 21.7241 14.1071C21.2404 13.6234 20.5844 13.3517 19.9003 13.3517C19.2163 13.3517 18.5602 13.6234 18.0766 14.1071C17.5929 14.5908 17.3211 15.2468 17.3211 15.9309C17.3211 16.6149 17.5929 17.271 18.0766 17.7547ZM22.2839 18.3145C21.6518 18.9466 20.7944 19.3018 19.9003 19.3018C19.0063 19.3018 18.1489 18.9466 17.5167 18.3145C16.8846 17.6823 16.5294 16.8249 16.5294 15.9309C16.5294 15.0369 16.8846 14.1794 17.5167 13.5473C18.1489 12.9151 19.0063 12.56 19.9003 12.56C20.7944 12.56 21.6518 12.9151 22.2839 13.5473C22.9161 14.1794 23.2713 15.0369 23.2713 15.9309C23.2713 16.8249 22.9161 17.6823 22.2839 18.3145ZM14.8419 13.9475C14.8419 14.0525 14.8002 14.1532 14.7259 14.2274C14.6517 14.3016 14.551 14.3433 14.446 14.3433C14.3411 14.3433 14.2404 14.3016 14.1661 14.2274C14.0919 14.1532 14.0502 14.0525 14.0502 13.9475C14.0502 13.8425 14.0919 13.7418 14.1661 13.6676C14.2404 13.5934 14.3411 13.5517 14.446 13.5517C14.551 13.5517 14.6517 13.5934 14.7259 13.6676C14.8002 13.7418 14.8419 13.8425 14.8419 13.9475Z" fill="#232323" stroke="white" stroke-width="0.2"/>
<defs>
<filter id="filter0_d_339_290" x="0.743408" y="0.278076" width="38.0325" height="38.0325" filterUnits="userSpaceOnUse" color-interpolation-filters="sRGB">
<feFlood flood-opacity="0" result="BackgroundImageFix"/>
<feColorMatrix in="SourceAlpha" type="matrix" values="0 0 0 0 0 0 0 0 0 0 0 0 0 0 0 0 0 0 127 0" result="hardAlpha"/>
<feOffset dy="4"/>
<feGaussianBlur stdDeviation="2"/>
<feComposite in2="hardAlpha" operator="out"/>
<feColorMatrix type="matrix" values="0 0 0 0 0 0 0 0 0 0 0 0 0 0 0 0 0 0 0.25 0"/>
<feBlend mode="normal" in2="BackgroundImageFix" result="effect1_dropShadow_339_290"/>
<feBlend mode="normal" in="SourceGraphic" in2="effect1_dropShadow_339_290" result="shape"/>
</filter>
</defs>
</svg>
